<?xml version="1.0" ?><!DOCTYPE svg  PUBLIC '-//W3C//DTD SVG 1.1//EN'  'http://www.w3.org/Graphics/SVG/1.1/DTD/svg11.dtd'><svg enable-background="new 0 0 226.8 226.8" id="Layer_1" version="1.1" viewBox="0 0 226.8 226.8" xml:space="preserve" xmlns="http://www.w3.org/2000/svg" xmlns:xlink="http://www.w3.org/1999/xlink"><g><g><path d="M145.9,183.9H84.6c-10.7,0-17.6-7.5-17.6-19.2L64.6,135c-0.1-1.4,0.9-2.6,2.3-2.7c1.4-0.1,2.6,0.9,2.7,2.3l2.4,29.8    c0,0.1,0,0.1,0,0.2c0,3.4,0.9,14.3,12.6,14.3h61.3c7.8,0,9.5-4.6,11.4-15.3c0.2-1.2,2.6-19.2,3.9-31.8c0.1-1.4,1.4-2.4,2.8-2.2    c1.4,0.1,2.4,1.4,2.2,2.8c-1.4,13-3.9,31.8-4,32c0,0,0,0.1,0,0.1C160.6,173.6,158.7,183.9,145.9,183.9z"/></g><g><g><path d="M153.6,135.4c-7.7,0-12.1-2.4-15-4c-2.1-1.2-2.8-1.5-5.1-1.5c-2.4,0-3,0.4-5.1,1.5c-2.9,1.6-7.3,4-15,4     c-7.7,0-12.1-2.4-15-4c-2.1-1.2-2.8-1.5-5.1-1.5c-2.4,0-3,0.4-5.1,1.5c-2.9,1.6-7.3,4-15,4c-7.7,0-12.1-2.4-15-4     c-2.1-1.2-2.7-1.5-5.1-1.5c-5.3,0-9.6-3.9-9.6-8.8s4.3-8.8,9.6-8.8c7.7,0,12.1,2.4,15,4c2.1,1.2,2.7,1.5,5.1,1.5     c2.4,0,3-0.4,5.1-1.5c2.9-1.6,7.3-4,15-4c7.7,0,12.1,2.4,15,4c2.1,1.2,2.8,1.5,5.1,1.5c2.4,0,3-0.4,5.1-1.5c2.9-1.6,7.3-4,15-4     s12.1,2.4,15,4c2.1,1.2,2.8,1.5,5.1,1.5c2.4,0,3-0.4,5.1-1.5c2.9-1.6,7.3-4,15-4c5.3,0,9.6,3.9,9.6,8.8s-4.3,8.8-9.6,8.8     c-2.4,0-3,0.4-5.1,1.5C165.7,133,161.3,135.4,153.6,135.4z M133.5,124.9c3.7,0,5.2,0.9,7.5,2.1c2.8,1.5,6.2,3.4,12.6,3.4     c6.4,0,9.8-1.9,12.6-3.4c2.3-1.3,3.9-2.1,7.5-2.1c2.5,0,4.6-1.7,4.6-3.8c0-2.1-2.1-3.8-4.6-3.8c-6.4,0-9.8,1.9-12.6,3.4     c-2.3,1.3-3.9,2.1-7.5,2.1c-3.7,0-5.2-0.9-7.5-2.1c-2.8-1.5-6.2-3.4-12.6-3.4c-6.4,0-9.8,1.9-12.6,3.4c-2.3,1.3-3.9,2.1-7.5,2.1     s-5.2-0.9-7.5-2.1c-2.8-1.5-6.2-3.4-12.6-3.4c-6.4,0-9.8,1.9-12.6,3.4c-2.3,1.3-3.9,2.1-7.5,2.1c-3.7,0-5.2-0.9-7.5-2.1     c-2.8-1.5-6.2-3.4-12.6-3.4c-2.5,0-4.6,1.7-4.6,3.8c0,2.1,2.1,3.8,4.6,3.8c3.7,0,5.2,0.9,7.5,2.1c2.8,1.5,6.2,3.4,12.6,3.4     c6.4,0,9.8-1.9,12.6-3.4c2.3-1.3,3.9-2.1,7.5-2.1c3.7,0,5.2,0.9,7.5,2.1c2.8,1.5,6.2,3.4,12.6,3.4c6.4,0,9.8-1.9,12.6-3.4     C128.3,125.7,129.8,124.9,133.5,124.9z"/></g></g><g><path d="M160.8,118.4c-0.3,0-0.6-0.1-0.9-0.2c-1.2-0.5-1.9-1.9-1.4-3.2c1-2.8,2.3-8.2,2.2-10.8c-0.1-1-0.2-2-0.4-3    c-0.3-1.4,0.6-2.7,1.9-3c1.4-0.3,2.7,0.6,3,1.9c0.3,1.2,0.4,2.5,0.5,3.7c0.2,2.5-0.5,5.9-1.2,8.6c0.4,0.9,0.2,2-0.5,2.7    c-0.2,0.4-0.5,1-0.8,1.7C162.7,117.9,161.8,118.4,160.8,118.4z"/></g><g><path d="M154,90.8c-0.4,0-0.7-0.1-1.1-0.2c-1.2-0.6-2.5-0.9-3.8-0.8c-0.8,0-1.7,0.2-2.5,0.6c-0.8,0.3-1.7,0.3-2.4-0.2    c-0.7-0.5-1.1-1.3-1.1-2.2c0-0.9,0-1.7,0-2.4c-0.5-7.6-4.8-13.9-9.3-13.6c-1.1,0.1-2.1-0.6-2.5-1.7c-0.1-0.4-0.3-0.9-0.6-1.3    c-0.7-1.2-0.3-2.7,0.9-3.4c1.2-0.7,2.7-0.3,3.4,0.9c0.1,0.2,0.2,0.4,0.3,0.6c6.6,0.9,12,8.3,12.7,17.9c0.3,0,0.5-0.1,0.8-0.1    c2.1-0.1,4.2,0.3,6.2,1.3c1.2,0.6,1.8,2.1,1.2,3.3C155.8,90.2,154.9,90.8,154,90.8z"/></g><g><path d="M94.4,69.7c-1.2,0-2.2-0.8-2.4-2c-0.3-1.4,0.6-2.7,1.9-3c1.8-0.4,3.2-1.1,3.8-2c0.4-0.6,0.5-1.3,0.3-2.1l-3.6-6.7    c-0.2-0.4-0.3-0.8-0.3-1.2c0-0.4,0.2-3.6,2.8-5.5c1.2-0.9,3.3-1.7,6.7-0.8c0.3,0.1,0.5,0.2,0.7,0.3c0.1,0,6.1,4.2,12.5,6.8    c0.4,0.1,2.3,0.9,4.8,2.1c1.2,0.6,1.8,2.1,1.1,3.3c-0.6,1.2-2.1,1.8-3.3,1.1c-2.5-1.2-4.4-1.9-4.4-1.9c0,0-0.1,0-0.1,0    c-6-2.5-11.6-6.1-13.1-7.1c-0.9-0.2-1.6-0.2-2,0.1c-0.3,0.2-0.5,0.7-0.6,1.1l3.4,6.3c0.1,0.2,0.2,0.4,0.2,0.6c0.6,3-0.2,5-0.9,6.2    c-1.7,2.6-4.7,3.7-6.9,4.2C94.7,69.6,94.6,69.7,94.4,69.7z"/></g><g><path d="M65.3,118.4c-0.8,0-1.6-0.4-2.1-1c-1.1-1.6-1.4-3.7-1.5-5.2c-0.2-3.6,1.5-6.9,4.3-8.6c-0.4-1.4-0.7-2.8-0.8-4.3    c-0.3-4.8,1.2-9.3,4.4-12.9c2.6-2.9,5.9-4.8,9.6-5.5c0-1.2,0.1-2.5,0.3-3.7c0.3-1.4,1.6-2.2,2.9-2c1.4,0.3,2.2,1.6,2,2.9    c-0.2,1-0.2,2-0.2,3c0,0.4,0.1,0.9,0.2,1.5c0.1,0.7,0,1.5-0.5,2c-0.5,0.6-1.1,0.9-1.9,1c0,0-0.1,0-0.2,0c0,0,0,0,0,0    c-3.3,0.2-6.4,1.7-8.6,4.2c-2.2,2.5-3.4,5.8-3.1,9.2c0.1,1.7,0.6,3.4,1.4,5c0.4,0.7,0.4,1.6,0,2.3c-0.4,0.7-1.1,1.2-1.9,1.3    c-1.8,0.2-3.1,2.1-2.9,4.3c0.1,1.1,0.3,1.9,0.5,2.3c0.7,0.7,0.9,1.9,0.4,2.8c0,0,0,0,0,0l0,0c0,0,0,0,0,0c0,0,0,0,0,0c0,0,0,0,0,0    l0,0c0,0,0,0,0,0c-0.1,0.1-0.2,0.3-0.2,0.4c-0.4,0.6-1.1,1-1.8,1C65.4,118.4,65.4,118.4,65.3,118.4z"/></g><g><path d="M86.4,81.1c-4.8,0-8.7-2.7-9.7-6.8c-1.3-5,2.4-10.2,8.2-11.7c1-0.3,2-0.4,3.1-0.4c4.8,0,8.7,2.7,9.7,6.8    c1.3,5-2.4,10.2-8.2,11.7C88.5,81,87.5,81.1,86.4,81.1z M88,67.2c-0.6,0-1.2,0.1-1.8,0.2c-3.1,0.8-5.2,3.4-4.6,5.6    c0.4,1.8,2.4,3,4.9,3c0.6,0,1.2-0.1,1.8-0.2c3.1-0.8,5.2-3.4,4.6-5.6C92.4,68.5,90.4,67.2,88,67.2z"/></g><g><path d="M87.4,68.8c-0.4,0-0.8-0.1-1.2-0.3c-1.2-0.6-1.7-2.1-1-3.4c0.2-0.5,2.2-4.8-2.7-9.5c-1-1-1-2.5-0.1-3.5c1-1,2.5-1,3.5-0.1    c7.7,7.5,3.8,15.1,3.6,15.4C89.2,68.3,88.3,68.8,87.4,68.8z"/></g><g><path d="M126,72.7c-6,0-10.8-4.2-10.8-9.3S120,54,126,54c6,0,10.8,4.2,10.8,9.3S131.9,72.7,126,72.7z M126,59    c-3.2,0-5.8,2-5.8,4.3s2.7,4.3,5.8,4.3c3.2,0,5.8-2,5.8-4.3S129.1,59,126,59z"/></g><g><path d="M127.5,60.8c-0.6,0-1.2-0.2-1.7-0.7c-1-0.9-1.1-2.5-0.2-3.5c0.4-0.4,3.3-4.1-0.3-9.9c-0.7-1.2-0.4-2.7,0.8-3.4    c1.2-0.7,2.7-0.4,3.4,0.8c5.7,9.2,0,15.6-0.3,15.9C128.9,60.5,128.2,60.8,127.5,60.8z"/></g><g><path d="M157.3,105.4c-2.1,0-4.3-0.6-6.2-1.8c-5.1-3.1-7.1-9.2-4.4-13.6c1.6-2.6,4.5-4.1,7.9-4.1c2.1,0,4.3,0.6,6.2,1.8    c5.1,3.1,7.1,9.2,4.4,13.6C163.6,103.9,160.7,105.4,157.3,105.4z M154.6,90.9c-1.6,0-2.9,0.6-3.6,1.7c-1.2,2,0,5.1,2.7,6.7    c1.1,0.7,2.4,1.1,3.6,1.1c1.6,0,2.9-0.6,3.6-1.7c1.2-2,0-5.1-2.7-6.7C157,91.2,155.8,90.9,154.6,90.9z"/></g><g><path d="M159.9,94.6c-1.1,0-2.1-0.7-2.4-1.8c-0.4-1.3,0.4-2.7,1.7-3.1c0.5-0.2,5-1.8,4.9-8.6c0-1.4,1.1-2.5,2.5-2.5c0,0,0,0,0,0    c1.4,0,2.5,1.1,2.5,2.5c0.1,10.8-8.1,13.3-8.5,13.4C160.4,94.5,160.1,94.6,159.9,94.6z"/></g><g><path d="M94.3,114.3c-4,0-7.3-2-8.7-5.2c-2.1-4.7,0.7-10.5,6.1-12.9c1.6-0.7,3.3-1.1,5-1.1c4,0,7.3,2,8.7,5.2c1,2.4,0.9,5-0.3,7.5    c-1.2,2.3-3.2,4.2-5.8,5.4C97.7,114,95.9,114.3,94.3,114.3z M96.6,100.1c-1,0-2,0.2-2.9,0.6c-2.9,1.3-4.5,4.2-3.6,6.3    c0.6,1.4,2.2,2.2,4.2,2.2c1,0,2-0.2,2.9-0.6c1.5-0.7,2.7-1.8,3.3-3.1c0.6-1.1,0.6-2.3,0.2-3.3C100.2,101,98.6,100.1,96.6,100.1z"/></g><g><path d="M92.6,104.2c-0.9,0-1.8-0.5-2.3-1.4c-0.2-0.3-3.7-8.1,4.3-15.3c1-0.9,2.6-0.8,3.5,0.2c0.9,1,0.8,2.6-0.2,3.5    c-5.3,4.7-3.1,9.3-3.1,9.4c0.6,1.2,0.1,2.7-1.2,3.3C93.3,104.1,93,104.2,92.6,104.2z"/></g><g><g><path d="M117.1,173.9c-14.6,0-27.2-10.9-29.4-25.3c-0.2-1.2,0.6-2.4,1.8-2.8c1.2-0.3,2.5,0.2,3,1.4c1.5,3.5,12.2,7.4,25,7.4     c12.8,0,22.8-3.8,24.2-7.4c0.4-1.2,1.7-1.9,3-1.6c1.2,0.3,2,1.5,1.9,2.8C144.5,162.9,131.8,173.9,117.1,173.9z M95.2,155.5     c4.1,8,12.6,13.4,22,13.4c9.4,0,17.7-5.4,21.9-13.3c-5.8,2.7-13.9,4.1-21.5,4.1C109.7,159.6,101.2,158.2,95.2,155.5z"/></g></g><g><ellipse cx="99.7" cy="138.1" rx="3.5" ry="2.7"/><path d="M99.7,143.4c-3.3,0-6-2.4-6-5.2c0-2.9,2.7-5.2,6-5.2c3.3,0,6,2.4,6,5.2C105.6,141,103,143.4,99.7,143.4z M98.8,138.1    c0.2,0.1,0.4,0.2,0.9,0.2s0.7-0.1,0.9-0.2c-0.2-0.1-0.4-0.2-0.9-0.2S99,138,98.8,138.1z"/></g><g><ellipse cx="133.1" cy="138.1" rx="3.5" ry="2.7"/><path d="M133.1,143.4c-3.3,0-6-2.4-6-5.2c0-2.9,2.7-5.2,6-5.2s6,2.4,6,5.2C139.1,141,136.4,143.4,133.1,143.4z M132.2,138.1    c0.2,0.1,0.4,0.2,0.9,0.2s0.7-0.1,0.9-0.2c-0.2-0.1-0.4-0.2-0.9-0.2S132.4,138,132.2,138.1z"/></g></g></svg>