<?xml version="1.0" ?><!DOCTYPE svg  PUBLIC '-//W3C//DTD SVG 1.1//EN'  'http://www.w3.org/Graphics/SVG/1.1/DTD/svg11.dtd'><svg enable-background="new 0 0 226.8 226.8" id="Layer_1" version="1.1" viewBox="0 0 226.8 226.8" xml:space="preserve" xmlns="http://www.w3.org/2000/svg" xmlns:xlink="http://www.w3.org/1999/xlink"><g><g><g><path d="M153.6,131.6c-7.7,0-12.1-2.4-15-4c-2.1-1.2-2.8-1.5-5.1-1.5c-2.4,0-3,0.4-5.1,1.5c-2.9,1.6-7.3,4-15,4     c-7.7,0-12.1-2.4-15-4c-2.1-1.2-2.8-1.5-5.1-1.5c-2.4,0-3,0.4-5.1,1.5c-2.9,1.6-7.3,4-15,4s-12.1-2.4-15-4     c-2.1-1.2-2.7-1.5-5.1-1.5c-5.3,0-9.6-3.9-9.6-8.8s4.3-8.8,9.6-8.8c7.7,0,12.1,2.4,15,4c2.1,1.2,2.7,1.5,5.1,1.5     c2.4,0,3-0.4,5.1-1.5c2.9-1.6,7.3-4,15-4c7.7,0,12.1,2.4,15,4c2.1,1.2,2.8,1.5,5.1,1.5s3-0.4,5.1-1.5c2.9-1.6,7.3-4,15-4     c7.7,0,12.1,2.4,15,4c2.1,1.2,2.8,1.5,5.1,1.5s3-0.4,5.1-1.5c2.9-1.6,7.3-4,15-4c5.3,0,9.6,3.9,9.6,8.8s-4.3,8.8-9.6,8.8     c-2.4,0-3,0.4-5.1,1.5C165.7,129.2,161.3,131.6,153.6,131.6z M133.5,121c3.7,0,5.2,0.9,7.5,2.1c2.8,1.5,6.2,3.4,12.6,3.4     c6.4,0,9.8-1.9,12.6-3.4c2.3-1.3,3.9-2.1,7.5-2.1c2.5,0,4.6-1.7,4.6-3.8c0-2.1-2.1-3.8-4.6-3.8c-6.4,0-9.8,1.9-12.6,3.4     c-2.3,1.3-3.9,2.1-7.5,2.1s-5.2-0.9-7.5-2.1c-2.8-1.5-6.2-3.4-12.6-3.4c-6.4,0-9.8,1.9-12.6,3.4c-2.3,1.3-3.9,2.1-7.5,2.1     s-5.2-0.9-7.5-2.1c-2.8-1.5-6.2-3.4-12.6-3.4c-6.4,0-9.8,1.9-12.6,3.4c-2.3,1.3-3.9,2.1-7.5,2.1s-5.2-0.9-7.5-2.1     c-2.8-1.5-6.2-3.4-12.6-3.4c-2.5,0-4.6,1.7-4.6,3.8c0,2.1,2.1,3.8,4.6,3.8c3.7,0,5.2,0.9,7.5,2.1c2.8,1.5,6.2,3.4,12.6,3.4     s9.8-1.9,12.6-3.4c2.3-1.3,3.9-2.1,7.5-2.1c3.7,0,5.2,0.9,7.5,2.1c2.8,1.5,6.2,3.4,12.6,3.4c6.4,0,9.8-1.9,12.6-3.4     C128.3,121.9,129.8,121,133.5,121z"/></g></g><g><path d="M96,95.5c-1.9,0-3.4-1.5-3.4-3.3s1.5-3.3,3.4-3.3s3.4,1.5,3.4,3.3S97.9,95.5,96,95.5z M96,90.5c-0.9,0-1.6,0.8-1.6,1.7    c0,0.9,0.7,1.7,1.6,1.7s1.6-0.8,1.6-1.7C97.6,91.2,96.9,90.5,96,90.5z"/></g><g><path d="M114.9,85.7c-1.9,0-3.4-1.5-3.4-3.3s1.5-3.3,3.4-3.3s3.4,1.5,3.4,3.3S116.8,85.7,114.9,85.7z M114.9,80.7    c-0.9,0-1.6,0.8-1.6,1.7s0.7,1.7,1.6,1.7s1.6-0.8,1.6-1.7S115.8,80.7,114.9,80.7z"/></g><g><path d="M133.8,95.5c-1.9,0-3.4-1.5-3.4-3.3s1.5-3.3,3.4-3.3s3.4,1.5,3.4,3.3S135.7,95.5,133.8,95.5z M133.8,90.5    c-0.9,0-1.6,0.8-1.6,1.7c0,0.9,0.7,1.7,1.6,1.7s1.6-0.8,1.6-1.7C135.4,91.2,134.6,90.5,133.8,90.5z"/></g><g><path d="M161.4,116.4c-0.3,0-0.6-0.1-0.9-0.2c-1.2-0.5-1.9-1.9-1.4-3.2c1-2.8,2.3-8.2,2.2-10.8c-0.6-8.3-5.7-14.9-11.6-14.5    c-0.8,0-1.7,0.2-2.5,0.6c-0.8,0.3-1.7,0.3-2.4-0.2c-0.7-0.5-1.1-1.3-1.1-2.2c0-0.9,0-1.7,0-2.4c-0.5-7.6-4.8-13.9-9.3-13.6    c-1.1,0.1-2.1-0.6-2.5-1.7c-1.9-5.7-12.4-10.6-16.2-12c0,0-0.1,0-0.1,0c-6-2.5-11.6-6.1-13.1-7.1c-0.9-0.2-1.6-0.2-2,0.1    c-0.3,0.2-0.5,0.7-0.6,1.1l3.4,6.3c0.1,0.2,0.2,0.4,0.2,0.6c0.7,3.2-0.3,5.4-1.3,6.7c-2.7,3.6-8.1,4-8.7,4    c-5.2,0.4-9.1,5.4-8.7,11.1c0,0.4,0.1,0.9,0.2,1.5c0.1,0.7,0,1.5-0.5,2c-0.4,0.6-1.1,0.9-1.9,1c0,0-0.2,0-0.2,0    c-3.3,0.2-6.4,1.7-8.6,4.2c-2.2,2.5-3.4,5.8-3.1,9.2c0.1,1.7,0.6,3.4,1.4,5c0.4,0.7,0.4,1.6,0,2.3c-0.4,0.7-1.1,1.2-1.9,1.3    c-1.8,0.2-3.1,2.1-2.9,4.3c0.1,1.1,0.3,1.9,0.5,2.3c0.7,0.7,0.9,1.9,0.4,2.8c0,0,0,0,0,0c0,0,0,0,0,0c0,0,0,0,0,0v0c0,0,0,0,0,0    c-0.1,0.1-0.1,0.3-0.2,0.4c-0.4,0.6-1.1,1-1.8,1c-0.9,0.1-1.7-0.3-2.2-1c-1.1-1.6-1.4-3.7-1.5-5.2c-0.2-3.6,1.5-6.9,4.3-8.6    c-0.4-1.4-0.7-2.8-0.8-4.3c-0.3-4.8,1.2-9.3,4.4-12.9c2.6-2.9,5.9-4.8,9.6-5.5c-0.3-8.3,5.6-15.3,13.4-15.9c1-0.1,3.9-0.6,5-2    c0.3-0.4,0.6-1,0.4-2.3l-3.6-6.7c-0.2-0.4-0.3-0.8-0.3-1.2c0-0.4,0.2-3.6,2.8-5.5c1.2-0.9,3.3-1.7,6.7-0.8    c0.3,0.1,0.5,0.2,0.7,0.3c0.1,0,6.1,4.2,12.5,6.8c1.8,0.6,14.5,5.5,18.5,13.5c6.6,0.9,12,8.3,12.7,17.9c0.3,0,0.5-0.1,0.8-0.1    c8.5-0.5,16.1,8.2,16.8,19.2c0.2,2.5-0.5,5.9-1.2,8.6c0.4,0.9,0.2,2-0.5,2.7c-0.2,0.4-0.5,1-0.8,1.7    C163.2,115.9,162.3,116.4,161.4,116.4z"/></g><g><path d="M145.3,180.2H84.1c-10.7,0-17.6-7.5-17.6-19.2l-2.4-29.7c-0.1-1.4,0.9-2.6,2.3-2.7c1.4-0.1,2.6,0.9,2.7,2.3l2.4,29.8    c0,0.1,0,0.1,0,0.2c0,3.4,0.9,14.3,12.6,14.3h61.3c7.8,0,9.5-4.6,11.4-15.3c0.2-1.2,2.6-19.2,3.9-31.8c0.1-1.4,1.4-2.4,2.8-2.2    c1.4,0.1,2.4,1.4,2.2,2.8c-1.4,13-3.9,31.8-4,32c0,0,0,0.1,0,0.1C160,169.8,158.2,180.2,145.3,180.2z"/></g><g><g><path d="M116.1,168.9c-11.2,0-21.6-3.4-27.2-8.8c-1-1-1-2.5-0.1-3.5c1-1,2.5-1,3.5-0.1c4.7,4.5,13.8,7.4,23.8,7.4     c10.1,0,19.6-3,24.1-7.7c1-1,2.5-1,3.5-0.1c1,1,1,2.5,0.1,3.5C138.3,165.3,127.7,168.9,116.1,168.9z"/></g></g><g><ellipse cx="100.9" cy="140.6" rx="3.5" ry="2.7"/><path d="M100.9,145.9c-3.3,0-6-2.4-6-5.2s2.7-5.2,6-5.2c3.3,0,6,2.4,6,5.2S104.1,145.9,100.9,145.9z M100,140.6    c0.2,0.1,0.4,0.2,0.9,0.2c0.4,0,0.7-0.1,0.9-0.2c-0.2-0.1-0.4-0.2-0.9-0.2C100.4,140.4,100.1,140.5,100,140.6z"/></g><g><ellipse cx="134.3" cy="140.6" rx="3.5" ry="2.7"/><path d="M134.3,145.9c-3.3,0-6-2.4-6-5.2s2.7-5.2,6-5.2s6,2.4,6,5.2S137.6,145.9,134.3,145.9z M133.4,140.6    c0.2,0.1,0.4,0.2,0.9,0.2s0.7-0.1,0.9-0.2c-0.2-0.1-0.4-0.2-0.9-0.2S133.6,140.5,133.4,140.6z"/></g><g><line fill="#FFFFFF" x1="72.6" x2="75.4" y1="129.2" y2="160.9"/><path d="M75.4,163.4c-1.3,0-2.4-1-2.5-2.3l-2.8-31.7c-0.1-1.4,0.9-2.6,2.3-2.7c1.4-0.1,2.6,0.9,2.7,2.3l2.8,31.7    c0.1,1.4-0.9,2.6-2.3,2.7C75.5,163.4,75.4,163.4,75.4,163.4z"/></g></g></svg>